<svg xmlns="http://www.w3.org/2000/svg" version="1.1" xmlns:xlink="http://www.w3.org/1999/xlink" width="2000" height="202" viewBox="0 0 2000 202"><svg xml:space="preserve" width="2000" height="202" data-version="2" data-id="lg_vfNAu1ozmHFUORscQM" viewBox="0 0 531 202" x="0" y="0"><rect width="100%" height="100%" fill="transparent"></rect><path fill="#3581c4" stroke="#d17b30" stroke-width="10.55" d="m89.608 144.223-51.272 6.052L64.72 105.9 43.118 59.006l50.358 11.378 37.923-35.031 4.74 51.409 45.036 25.24-47.427 20.395-10.087 50.631z"></path><path fill="#864914" d="M98.085 142.836 59.32 148.1l19.402-33.97-16.987-35.242 38.303 7.954 28.269-27.043 4.272 38.886 34.454 18.527-35.662 16.08-6.973 38.494z"></path><path fill="#e6720e" d="m100.505 132.85-27.83 2.304 15.099-23.49-10.793-25.756 27.007 7.1 21.16-18.221 1.593 27.879 23.868 14.492-26.02 10.131-6.408 27.179z"></path><path fill="none" stroke="#3984c6" stroke-width="7" d="M115.363 117.698v13.72q-.67.47-2.38 1.29-1.71.82-4.72 1.47-3.01.64-7.54.64-6.1 0-10.51-2.02t-6.78-6.54q-2.36-4.53-2.36-11.98 0-9.94 5.09-15.33 5.09-5.38 14.2-5.38 4.34 0 6.93.83 2.58.84 3.92 1.95 1.34 1.11 1.86 1.95.2.31.28.54.09.24.11.74.09.67.05 1.95-.05 1.28-.21 2.25-.11.61-.36.81-.12.11-.39.19-.28.09-.84.09-.89 0-2.07-.07-1.19-.07-1.74-.15-.67-.12-.96-.32-.29-.21-.63-.66-.33-.44-.92-1.04-.58-.6-1.76-1.07-1.19-.48-3.27-.48-4.6 0-7.21 3.33-2.62 3.32-2.62 9.56 0 6.54 2.71 9.94 2.72 3.39 7.81 3.39 2.56 0 3.77-.38 1.21-.37 1.55-.57v-8.65q0-.81.28-1.23 1.25-1.83 3.5-3.86.42-.34.73-.34.33 0 .69.34 1.23 1.05 2.06 2.01.84.96 1.45 1.85.28.45.28 1.23zm29-21.27q1.53 2.15 3.13 5.53 1.6 3.38 3.1 7.42 1.51 4.03 2.72 8.25 1.21 4.22 1.99 8.11.78 3.9.89 6.93.02 1.48-1.34 1.48h-6.73q-1.31 0-1.37-1.31-.11-3.12-1-7.57h-15.2q-.78 4.34-.89 7.57-.05 1.31-1.42 1.31h-6.59q-.5 0-.84-.3-.33-.29-.3-1.01.13-3.09.9-7.03.77-3.94 1.99-8.17t2.73-8.28q1.5-4.05 3.12-7.41 1.61-3.37 3.14-5.52.81-1.14 1.71-1.67.91-.52 2.24-.52h4.01q1.36 0 2.28.52.92.53 1.73 1.67Zm-6.13 6.6h-.16q-1.84 2.92-3.37 6.99-1.53 4.06-2.64 8.35h12.08q-1.17-4.29-2.7-8.35-1.54-4.07-3.21-6.99zm33.49 1.56v28.08q0 .84-.35 1.16-.35.32-1.18.32h-5.93q-.84 0-1.19-.32-.34-.32-.34-1.16v-30.97q0-2.79.51-4.42.52-1.62 2.01-2.33 1.48-.71 4.35-.71h7.38q14.53 0 14.53 11.16 0 3.39-1.15 5.56-1.14 2.17-2.83 3.38-1.7 1.22-3.34 1.83v.14q1.86 1.22 3.54 3.21 1.69 1.99 3.05 4.32 1.37 2.32 2.31 4.59.95 2.27 1.31 4.05.17.83.01 1.25-.15.42-.96.42h-6.43q-.72 0-1.26-.31t-.99-1.42q-2.12-5.31-4.87-8.67-2.76-3.35-5.32-5.38-1.64-1.31-1.64-1.87 0-.44.53-1.22.33-.48.97-1.14.64-.67 1.12-1.01.47-.33.76-.41.3-.09.91-.09 2.06 0 3.43-1.42 1.38-1.42 1.38-4.48 0-2.89-1.46-4.24t-4.02-1.35h-1.67q-1.84 0-2.51.78-.66.78-.66 2.67zm37.18-5.9v33.98q0 .84-.35 1.16-.35.32-1.18.32h-5.93q-.83 0-1.18-.32t-.35-1.16v-33.98q0-.81.28-1.23 1.25-1.83 3.51-3.86.41-.34.72-.34.33 0 .7.34 1.22 1.05 2.05 2.01.84.96 1.45 1.85.28.45.28 1.23zm31.28 19.48h.23q.39-1.5.85-2.96.45-1.46 1.12-3.27.59-1.62 1.42-3.72.84-2.1 1.77-4.27.93-2.17 1.82-4.04.89-1.86 1.62-2.97.89-1.37 1.93-2.04 1.04-.66 3.08-.66h3.64q1.45 0 2.44.43t1.4 2.04q.31 1.2.59 3.51.28 2.31.47 6.4.2 4.09.31 10.51.11 6.41.11 15.85 0 .5-.34.83-.33.34-.8.34h-6.35q-.47 0-.81-.34-.33-.33-.33-.86v-12.47q0-5.12-.03-8.49-.03-3.36-.07-5.35-.04-1.99-.12-3.08h-.17q-1.47 3.4-3.14 7.56-1.67 4.16-3.26 8.57-1.59 4.41-2.84 8.61-.36 1.25-.9 1.74-.55.49-2.47.49h-3.2q-1.64 0-2.18-.42-.55-.42-.94-1.81-.91-3.17-2.03-6.71-1.11-3.53-2.29-6.94-1.19-3.41-2.29-6.29-1.09-2.88-1.96-4.8h-.16q-.23 3.28-.39 7.99-.17 4.7-.27 10.21-.1 5.51-.12 11.25 0 .5-.34.82-.33.32-.81.32h-5.7q-.47 0-.81-.34-.33-.33-.33-.86.03-14.83.6-23.68.57-8.86 1.24-11.86.44-1.98 1.57-2.58 1.12-.59 2.57-.59h4.51q1.53 0 2.24.54.71.54 1.74 2.1.61.92 1.46 2.76.85 1.83 1.77 4.07t1.74 4.43q.82 2.18 1.35 3.8.56 1.64 1.03 3.18.47 1.55.83 3.05zm52.91-21.74q1.53 2.15 3.13 5.53 1.6 3.38 3.11 7.42 1.5 4.03 2.71 8.25t1.99 8.11q.78 3.9.89 6.93.03 1.48-1.34 1.48h-6.73q-1.31 0-1.36-1.31-.12-3.12-1.01-7.57h-15.19q-.78 4.34-.89 7.57-.06 1.31-1.42 1.31h-6.6q-.5 0-.83-.3-.34-.29-.31-1.01.14-3.09.9-7.03.77-3.94 1.99-8.17 1.23-4.23 2.73-8.28 1.51-4.05 3.12-7.41 1.61-3.37 3.14-5.52.81-1.14 1.72-1.67.9-.52 2.24-.52h4q1.37 0 2.29.52.92.53 1.72 1.67Zm-6.12 6.6h-.17q-1.83 2.92-3.37 6.99-1.53 4.06-2.64 8.35h12.08q-1.17-4.29-2.7-8.35-1.53-4.07-3.2-6.99zm56.36 31.79q-5.23 0-8.92-1.37-3.69-1.36-5.62-4.79-1.94-3.42-1.94-9.6v-20.37q0-.81.28-1.23 1.25-1.83 3.51-3.86.42-.34.72-.34.34 0 .7.34 1.22 1.05 2.06 2.01.83.96 1.44 1.85.28.45.28 1.23v18.98q0 3.98.85 6.05.85 2.08 2.52 2.83t4.12.75q2.5 0 4.17-.75t2.51-2.83q.83-2.07.83-6.05v-18.98q0-.81.28-1.23 1.25-1.83 3.51-3.86.42-.34.72-.34.34 0 .7.34 1.22 1.05 2.06 2.01.83.96 1.45 1.85.27.45.27 1.23v20.37q0 6.18-2.11 9.6-2.12 3.43-5.83 4.79-3.72 1.37-8.56 1.37Zm42.33-33.26v31.11q0 .84-.35 1.16-.34.32-1.18.32h-5.93q-.83 0-1.18-.32t-.35-1.16v-31.11h-8.29q-.67 0-1-.23-.73-.5-1.49-1.19-.77-.7-1.66-1.67-.28-.37-.28-.59 0-.25.28-.55.89-.98 1.66-1.67.76-.7 1.49-1.2.39-.22 1-.22h25.6q.67 0 1.01.22.72.5 1.5 1.2.78.69 1.64 1.67.28.36.28.58 0 .25-.28.56-.86.97-1.64 1.67-.78.69-1.5 1.19-.39.23-1.01.23zm34.46 0v31.11q0 .84-.35 1.16-.35.32-1.18.32h-5.93q-.84 0-1.18-.32-.35-.32-.35-1.16v-31.11h-8.3q-.66 0-1-.23-.72-.5-1.49-1.19-.76-.7-1.65-1.67-.28-.37-.28-.59 0-.25.28-.55.89-.98 1.65-1.67.77-.7 1.49-1.2.39-.22 1-.22h25.61q.67 0 1 .22.72.5 1.5 1.2.78.69 1.65 1.67.27.36.27.58 0 .25-.27.56-.87.97-1.65 1.67-.78.69-1.5 1.19-.39.23-1 .23zm38.68-5.13q1.53 2.15 3.14 5.53 1.6 3.38 3.1 7.42 1.5 4.03 2.71 8.25t1.99 8.11q.78 3.9.89 6.93.03 1.48-1.33 1.48h-6.74q-1.31 0-1.36-1.31-.11-3.12-1-7.57h-15.2q-.78 4.34-.89 7.57-.06 1.31-1.42 1.31h-6.6q-.5 0-.83-.3-.34-.29-.31-1.01.14-3.09.91-7.03.76-3.94 1.99-8.17 1.22-4.23 2.72-8.28 1.51-4.05 3.12-7.41 1.62-3.37 3.15-5.52.8-1.14 1.71-1.67.9-.52 2.24-.52h4.01q1.36 0 2.28.52.92.53 1.72 1.67Zm-6.12 6.6h-.17q-1.83 2.92-3.36 6.99-1.53 4.06-2.65 8.35h12.08q-1.17-4.29-2.7-8.35-1.53-4.07-3.2-6.99zm46.87 15.14h.22q.39-1.5.85-2.96.46-1.46 1.13-3.27.58-1.62 1.42-3.72.83-2.1 1.77-4.27.93-2.17 1.82-4.04.89-1.86 1.61-2.97.89-1.37 1.94-2.04 1.04-.66 3.07-.66h3.65q1.45 0 2.43.43.99.43 1.41 2.04.31 1.2.58 3.51.28 2.31.48 6.4.19 4.09.3 10.51.11 6.41.11 15.85 0 .5-.33.83-.33.34-.81.34h-6.34q-.48 0-.81-.34-.33-.33-.33-.86v-12.47q0-5.12-.03-8.49-.03-3.36-.07-5.35-.04-1.99-.13-3.08h-.16q-1.48 3.4-3.15 7.56t-3.25 8.57q-1.59 4.41-2.84 8.61-.37 1.25-.91 1.74t-2.46.49h-3.2q-1.64 0-2.19-.42-.54-.42-.93-1.81-.92-3.17-2.03-6.71-1.11-3.53-2.3-6.94-1.18-3.41-2.28-6.29-1.1-2.88-1.96-4.8h-.17q-.22 3.28-.39 7.99-.16 4.7-.26 10.21-.1 5.51-.13 11.25 0 .5-.33.82-.34.32-.81.32h-5.7q-.48 0-.81-.34-.34-.33-.34-.86.03-14.83.6-23.68.57-8.86 1.24-11.86.45-1.98 1.57-2.58 1.13-.59 2.58-.59h4.51q1.53 0 2.24.54.71.54 1.74 2.1.61.92 1.46 2.76.85 1.83 1.77 4.07.91 2.24 1.74 4.43.82 2.18 1.35 3.8.55 1.64 1.03 3.18.47 1.55.83 3.05z" paint-order="stroke"></path><path fill="#fff" d="M115.363 117.698v13.72q-.67.47-2.38 1.29-1.71.82-4.72 1.47-3.01.64-7.54.64-6.1 0-10.51-2.02t-6.78-6.54q-2.36-4.53-2.36-11.98 0-9.94 5.09-15.33 5.09-5.38 14.2-5.38 4.34 0 6.93.83 2.58.84 3.92 1.95 1.34 1.11 1.86 1.95.2.31.28.54.09.24.11.74.09.67.05 1.95-.05 1.28-.21 2.25-.11.61-.36.81-.12.11-.39.19-.28.09-.84.09-.89 0-2.07-.07-1.19-.07-1.74-.15-.67-.12-.96-.32-.29-.21-.63-.66-.33-.44-.92-1.04-.58-.6-1.76-1.07-1.19-.48-3.27-.48-4.6 0-7.21 3.33-2.62 3.32-2.62 9.56 0 6.54 2.71 9.94 2.72 3.39 7.81 3.39 2.56 0 3.77-.38 1.21-.37 1.55-.57v-8.65q0-.81.28-1.23 1.25-1.83 3.5-3.86.42-.34.73-.34.33 0 .69.34 1.23 1.05 2.06 2.01.84.96 1.45 1.85.28.45.28 1.23" paint-order="stroke"></path><rect width="34.29" height="41.25" x="-17.14" y="-20.63" fill="none" rx="0" ry="0" transform="translate(98.72 114.7)"></rect><path fill="#fff" d="M144.363 96.428q1.53 2.15 3.13 5.53 1.6 3.38 3.1 7.42 1.51 4.03 2.72 8.25 1.21 4.22 1.99 8.11.78 3.9.89 6.93.02 1.48-1.34 1.48h-6.73q-1.31 0-1.37-1.31-.11-3.12-1-7.57h-15.2q-.78 4.34-.89 7.57-.05 1.31-1.42 1.31h-6.59q-.5 0-.84-.3-.33-.29-.3-1.01.13-3.09.9-7.03.77-3.94 1.99-8.17t2.73-8.28q1.5-4.05 3.12-7.41 1.61-3.37 3.14-5.52.81-1.14 1.71-1.67.91-.52 2.24-.52h4.01q1.36 0 2.28.52.92.53 1.73 1.67m-6.13 6.6h-.16q-1.84 2.92-3.37 6.99-1.53 4.06-2.64 8.35h12.08q-1.17-4.29-2.7-8.35-1.54-4.07-3.21-6.99" paint-order="stroke"></path><rect width="35.7" height="39.91" x="-17.85" y="-19.95" fill="none" rx="0" ry="0" transform="translate(138.85 114.7)"></rect><path fill="#fff" d="M171.723 104.588v28.08q0 .84-.35 1.16-.35.32-1.18.32h-5.93q-.84 0-1.19-.32-.34-.32-.34-1.16v-30.97q0-2.79.51-4.42.52-1.62 2.01-2.33 1.48-.71 4.35-.71h7.38q14.53 0 14.53 11.16 0 3.39-1.15 5.56-1.14 2.17-2.83 3.38-1.7 1.22-3.34 1.83v.14q1.86 1.22 3.54 3.21 1.69 1.99 3.05 4.32 1.37 2.32 2.31 4.59.95 2.27 1.31 4.05.17.83.01 1.25-.15.42-.96.42h-6.43q-.72 0-1.26-.31t-.99-1.42q-2.12-5.31-4.87-8.67-2.76-3.35-5.32-5.38-1.64-1.31-1.64-1.87 0-.44.53-1.22.33-.48.97-1.14.64-.67 1.12-1.01.47-.33.76-.41.3-.09.91-.09 2.06 0 3.43-1.42 1.38-1.42 1.38-4.48 0-2.89-1.46-4.24t-4.02-1.35h-1.67q-1.84 0-2.51.78-.66.78-.66 2.67" paint-order="stroke"></path><rect width="31.8" height="39.91" x="-15.9" y="-19.95" fill="none" rx="0" ry="0" transform="translate(179.13 114.7)"></rect><path fill="#fff" d="M208.903 98.688v33.98q0 .84-.35 1.16-.35.32-1.18.32h-5.93q-.83 0-1.18-.32t-.35-1.16v-33.98q0-.81.28-1.23 1.25-1.83 3.51-3.86.41-.34.72-.34.33 0 .7.34 1.22 1.05 2.05 2.01.84.96 1.45 1.85.28.45.28 1.23" paint-order="stroke"></path><rect width="8.99" height="40.89" x="-4.5" y="-20.45" fill="none" rx="0" ry="0" transform="translate(204.9 114.2)"></rect><path fill="#fff" d="M240.183 118.168h.23q.39-1.5.85-2.96.45-1.46 1.12-3.27.59-1.62 1.42-3.72.84-2.1 1.77-4.27.93-2.17 1.82-4.04.89-1.86 1.62-2.97.89-1.37 1.93-2.04 1.04-.66 3.08-.66h3.64q1.45 0 2.44.43t1.4 2.04q.31 1.2.59 3.51.28 2.31.47 6.4.2 4.09.31 10.51.11 6.41.11 15.85 0 .5-.34.83-.33.34-.8.34h-6.35q-.47 0-.81-.34-.33-.33-.33-.86v-12.47q0-5.12-.03-8.49-.03-3.36-.07-5.35-.04-1.99-.12-3.08h-.17q-1.47 3.4-3.14 7.56-1.67 4.16-3.26 8.57-1.59 4.41-2.84 8.61-.36 1.25-.9 1.74-.55.49-2.47.49h-3.2q-1.64 0-2.18-.42-.55-.42-.94-1.81-.91-3.17-2.03-6.71-1.11-3.53-2.29-6.94-1.19-3.41-2.29-6.29-1.09-2.88-1.96-4.8h-.16q-.23 3.28-.39 7.99-.17 4.7-.27 10.21-.1 5.51-.12 11.25 0 .5-.34.82-.33.32-.81.32h-5.7q-.47 0-.81-.34-.33-.33-.33-.86.03-14.83.6-23.68.57-8.86 1.24-11.86.44-1.98 1.57-2.58 1.12-.59 2.57-.59h4.51q1.53 0 2.24.54.71.54 1.74 2.1.61.92 1.46 2.76.85 1.83 1.77 4.07t1.74 4.43q.82 2.18 1.35 3.8.56 1.64 1.03 3.18.47 1.55.83 3.05" paint-order="stroke"></path><rect width="45.45" height="39.91" x="-22.73" y="-19.95" fill="none" rx="0" ry="0" transform="translate(240.76 114.7)"></rect><path fill="#fff" d="M293.093 96.428q1.53 2.15 3.13 5.53 1.6 3.38 3.11 7.42 1.5 4.03 2.71 8.25t1.99 8.11q.78 3.9.89 6.93.03 1.48-1.34 1.48h-6.73q-1.31 0-1.36-1.31-.12-3.12-1.01-7.57h-15.19q-.78 4.34-.89 7.57-.06 1.31-1.42 1.31h-6.6q-.5 0-.83-.3-.34-.29-.31-1.01.14-3.09.9-7.03.77-3.94 1.99-8.17 1.23-4.23 2.73-8.28 1.51-4.05 3.12-7.41 1.61-3.37 3.14-5.52.81-1.14 1.72-1.67.9-.52 2.24-.52h4q1.37 0 2.29.52.92.53 1.72 1.67m-6.12 6.6h-.17q-1.83 2.92-3.37 6.99-1.53 4.06-2.64 8.35h12.08q-1.17-4.29-2.7-8.35-1.53-4.07-3.2-6.99" paint-order="stroke"></path><rect width="35.7" height="39.91" x="-17.85" y="-19.95" fill="none" rx="0" ry="0" transform="translate(287.58 114.7)"></rect><path fill="#fff" d="M343.333 134.818q-5.23 0-8.92-1.37-3.69-1.36-5.62-4.79-1.94-3.42-1.94-9.6v-20.37q0-.81.28-1.23 1.25-1.83 3.51-3.86.42-.34.72-.34.34 0 .7.34 1.22 1.05 2.06 2.01.83.96 1.44 1.85.28.45.28 1.23v18.98q0 3.98.85 6.05.85 2.08 2.52 2.83t4.12.75q2.5 0 4.17-.75t2.51-2.83q.83-2.07.83-6.05v-18.98q0-.81.28-1.23 1.25-1.83 3.51-3.86.42-.34.72-.34.34 0 .7.34 1.22 1.05 2.06 2.01.83.96 1.45 1.85.27.45.27 1.23v20.37q0 6.18-2.11 9.6-2.12 3.43-5.83 4.79-3.72 1.37-8.56 1.37" paint-order="stroke"></path><rect width="32.98" height="41.56" x="-16.49" y="-20.78" fill="none" rx="0" ry="0" transform="translate(343.84 114.54)"></rect><path fill="#fff" d="M385.663 101.558v31.11q0 .84-.35 1.16-.34.32-1.18.32h-5.93q-.83 0-1.18-.32t-.35-1.16v-31.11h-8.29q-.67 0-1-.23-.73-.5-1.49-1.19-.77-.7-1.66-1.67-.28-.37-.28-.59 0-.25.28-.55.89-.98 1.66-1.67.76-.7 1.49-1.2.39-.22 1-.22h25.6q.67 0 1.01.22.72.5 1.5 1.2.78.69 1.64 1.67.28.36.28.58 0 .25-.28.56-.86.97-1.64 1.67-.78.69-1.5 1.19-.39.23-1.01.23z" paint-order="stroke"></path><rect width="34.46" height="39.91" x="-17.23" y="-19.95" fill="none" rx="0" ry="0" transform="translate(381.68 114.7)"></rect><path fill="#fff" d="M420.123 101.558v31.11q0 .84-.35 1.16-.35.32-1.18.32h-5.93q-.84 0-1.18-.32-.35-.32-.35-1.16v-31.11h-8.3q-.66 0-1-.23-.72-.5-1.49-1.19-.76-.7-1.65-1.67-.28-.37-.28-.59 0-.25.28-.55.89-.98 1.65-1.67.77-.7 1.49-1.2.39-.22 1-.22h25.61q.67 0 1 .22.72.5 1.5 1.2.78.69 1.65 1.67.27.36.27.58 0 .25-.27.56-.87.97-1.65 1.67-.78.69-1.5 1.19-.39.23-1 .23z" paint-order="stroke"></path><rect width="34.45" height="39.91" x="-17.23" y="-19.95" fill="none" rx="0" ry="0" transform="translate(416.14 114.7)"></rect><path fill="#fff" d="M458.803 96.428q1.53 2.15 3.14 5.53 1.6 3.38 3.1 7.42 1.5 4.03 2.71 8.25t1.99 8.11q.78 3.9.89 6.93.03 1.48-1.33 1.48h-6.74q-1.31 0-1.36-1.31-.11-3.12-1-7.57h-15.2q-.78 4.34-.89 7.57-.06 1.31-1.42 1.31h-6.6q-.5 0-.83-.3-.34-.29-.31-1.01.14-3.09.91-7.03.76-3.94 1.99-8.17 1.22-4.23 2.72-8.28 1.51-4.05 3.12-7.41 1.62-3.37 3.15-5.52.8-1.14 1.71-1.67.9-.52 2.24-.52h4.01q1.36 0 2.28.52.92.53 1.72 1.67m-6.12 6.6h-.17q-1.83 2.92-3.36 6.99-1.53 4.06-2.65 8.35h12.08q-1.17-4.29-2.7-8.35-1.53-4.07-3.2-6.99" paint-order="stroke"></path><rect width="35.7" height="39.91" x="-17.85" y="-19.95" fill="none" rx="0" ry="0" transform="translate(453.29 114.7)"></rect><path fill="#fff" d="M499.553 118.168h.22q.39-1.5.85-2.96.46-1.46 1.13-3.27.58-1.62 1.42-3.72.83-2.1 1.77-4.27.93-2.17 1.82-4.04.89-1.86 1.61-2.97.89-1.37 1.94-2.04 1.04-.66 3.07-.66h3.65q1.45 0 2.43.43.99.43 1.41 2.04.31 1.2.58 3.51.28 2.31.48 6.4.19 4.09.3 10.51.11 6.41.11 15.85 0 .5-.33.83-.33.34-.81.34h-6.34q-.48 0-.81-.34-.33-.33-.33-.86v-12.47q0-5.12-.03-8.49-.03-3.36-.07-5.35-.04-1.99-.13-3.08h-.16q-1.48 3.4-3.15 7.56t-3.25 8.57q-1.59 4.41-2.84 8.61-.37 1.25-.91 1.74t-2.46.49h-3.2q-1.64 0-2.19-.42-.54-.42-.93-1.81-.92-3.17-2.03-6.71-1.11-3.53-2.3-6.94-1.18-3.41-2.28-6.29-1.1-2.88-1.96-4.8h-.17q-.22 3.28-.39 7.99-.16 4.7-.26 10.21-.1 5.51-.13 11.25 0 .5-.33.82-.34.32-.81.32h-5.7q-.48 0-.81-.34-.34-.33-.34-.86.03-14.83.6-23.68.57-8.86 1.24-11.86.45-1.98 1.57-2.58 1.13-.59 2.58-.59h4.51q1.53 0 2.24.54.71.54 1.74 2.1.61.92 1.46 2.76.85 1.83 1.77 4.07.91 2.24 1.74 4.43.82 2.18 1.35 3.8.55 1.64 1.03 3.18.47 1.55.83 3.05" paint-order="stroke"></path><rect width="45.45" height="39.91" x="-22.73" y="-19.95" fill="none" rx="0" ry="0" transform="translate(500.12 114.7)"></rect></svg></svg>